# xmcd
#
# Track frame offsets:
#	150
#	13589
#	32733
#	52971
#	74540
#	89482
#	101302
#	117535
#	118835
#	138458
#	159351
#	182040
#
# Disc length: 2727 seconds
#
# Revision: 1
# Processed by: cddbd v1.5.2PL0 Copyright (c) Steve Scherf et al.
# Submitted via: audiograbber 1.83.01
#
DISCID=a20aa50c
DTITLE=Eric Schwartz - The Aristocrat
DYEAR=2012
DGENRE=
TTITLE0=There´s A Picture
TTITLE1=Black Man In The White House
TTITLE2=Welcome to the Working, Wanking Week
TTITLE3=Teltale Kitchen
TTITLE4=Codependent Sonata
TTITLE5=I Don´t Know Why
TTITLE6=Senator Whoever
TTITLE7=STFU Ann Coulter
TTITLE8=The Being Said
TTITLE9=Male Pattern Naldness
TTITLE10=Jesus, Leave The Bible Belt Alone
TTITLE11=W.G.F.T.S.
EXTD=
EXTT0=
EXTT1=
EXTT2=
EXTT3=
EXTT4=
EXTT5=
EXTT6=
EXTT7=
EXTT8=
EXTT9=
EXTT10=
EXTT11=
PLAYORDER=
